<mxfile host="app.diagrams.net" modified="2023-05-12T12:36:04.844Z" agent="Mozilla/5.0 (X11; Linux x86_64) AppleWebKit/537.36 (KHTML, like Gecko) Chrome/113.0.0.0 Safari/537.36" etag="sGVl-PEojKSz2bl769Gc" version="21.2.9" type="github" pages="3">
  <diagram id="C5RBs43oDa-KdzZeNtuy" name="authntication">
    <mxGraphModel dx="836" dy="495" grid="1" gridSize="10" guides="1" tooltips="1" connect="1" arrows="1" fold="1" page="1" pageScale="1" pageWidth="827" pageHeight="1169" math="0" shadow="0">
      <root>
        <mxCell id="WIyWlLk6GJQsqaUBKTNV-0" />
        <mxCell id="WIyWlLk6GJQsqaUBKTNV-1" parent="WIyWlLk6GJQsqaUBKTNV-0" />
        <mxCell id="tBLUwzcYcOvDInlhGQcW-26" value="" style="edgeStyle=orthogonalEdgeStyle;rounded=0;orthogonalLoop=1;jettySize=auto;html=1;" edge="1" parent="WIyWlLk6GJQsqaUBKTNV-1" source="WIyWlLk6GJQsqaUBKTNV-3" target="tBLUwzcYcOvDInlhGQcW-25">
          <mxGeometry relative="1" as="geometry" />
        </mxCell>
        <mxCell id="WIyWlLk6GJQsqaUBKTNV-3" value="Register" style="rounded=1;whiteSpace=wrap;html=1;fontSize=12;glass=0;strokeWidth=1;shadow=0;fillColor=#dae8fc;strokeColor=#6c8ebf;" parent="WIyWlLk6GJQsqaUBKTNV-1" vertex="1">
          <mxGeometry x="10" y="40" width="120" height="40" as="geometry" />
        </mxCell>
        <mxCell id="tBLUwzcYcOvDInlhGQcW-32" value="" style="edgeStyle=orthogonalEdgeStyle;rounded=0;orthogonalLoop=1;jettySize=auto;html=1;" edge="1" parent="WIyWlLk6GJQsqaUBKTNV-1" source="tBLUwzcYcOvDInlhGQcW-1" target="tBLUwzcYcOvDInlhGQcW-31">
          <mxGeometry relative="1" as="geometry" />
        </mxCell>
        <mxCell id="tBLUwzcYcOvDInlhGQcW-1" value="Log In" style="rounded=1;whiteSpace=wrap;html=1;fillColor=#dae8fc;strokeColor=#6c8ebf;" vertex="1" parent="WIyWlLk6GJQsqaUBKTNV-1">
          <mxGeometry y="590" width="120" height="40" as="geometry" />
        </mxCell>
        <mxCell id="tBLUwzcYcOvDInlhGQcW-23" value="" style="edgeStyle=orthogonalEdgeStyle;rounded=0;orthogonalLoop=1;jettySize=auto;html=1;" edge="1" parent="WIyWlLk6GJQsqaUBKTNV-1" source="tBLUwzcYcOvDInlhGQcW-4" target="tBLUwzcYcOvDInlhGQcW-22">
          <mxGeometry relative="1" as="geometry" />
        </mxCell>
        <mxCell id="tBLUwzcYcOvDInlhGQcW-30" style="edgeStyle=orthogonalEdgeStyle;rounded=0;orthogonalLoop=1;jettySize=auto;html=1;exitX=0.5;exitY=1;exitDx=0;exitDy=0;" edge="1" parent="WIyWlLk6GJQsqaUBKTNV-1" source="tBLUwzcYcOvDInlhGQcW-4">
          <mxGeometry relative="1" as="geometry">
            <mxPoint x="420" y="160" as="targetPoint" />
          </mxGeometry>
        </mxCell>
        <mxCell id="tBLUwzcYcOvDInlhGQcW-4" value="Check already exist or not&amp;nbsp;" style="rhombus;whiteSpace=wrap;html=1;rounded=1;glass=0;strokeWidth=1;shadow=0;" vertex="1" parent="WIyWlLk6GJQsqaUBKTNV-1">
          <mxGeometry x="330" y="20" width="180" height="80" as="geometry" />
        </mxCell>
        <mxCell id="tBLUwzcYcOvDInlhGQcW-13" value="" style="edgeStyle=orthogonalEdgeStyle;rounded=0;orthogonalLoop=1;jettySize=auto;html=1;" edge="1" parent="WIyWlLk6GJQsqaUBKTNV-1" source="tBLUwzcYcOvDInlhGQcW-6" target="tBLUwzcYcOvDInlhGQcW-12">
          <mxGeometry relative="1" as="geometry" />
        </mxCell>
        <mxCell id="tBLUwzcYcOvDInlhGQcW-6" value="Encrypt Password" style="whiteSpace=wrap;html=1;rounded=1;glass=0;strokeWidth=1;shadow=0;" vertex="1" parent="WIyWlLk6GJQsqaUBKTNV-1">
          <mxGeometry x="370" y="160" width="100" height="40" as="geometry" />
        </mxCell>
        <mxCell id="tBLUwzcYcOvDInlhGQcW-11" value="NO" style="text;html=1;align=center;verticalAlign=middle;resizable=0;points=[];autosize=1;strokeColor=none;fillColor=none;" vertex="1" parent="WIyWlLk6GJQsqaUBKTNV-1">
          <mxGeometry x="374" y="120" width="40" height="30" as="geometry" />
        </mxCell>
        <mxCell id="tBLUwzcYcOvDInlhGQcW-15" value="" style="edgeStyle=orthogonalEdgeStyle;rounded=0;orthogonalLoop=1;jettySize=auto;html=1;" edge="1" parent="WIyWlLk6GJQsqaUBKTNV-1" source="tBLUwzcYcOvDInlhGQcW-12" target="tBLUwzcYcOvDInlhGQcW-14">
          <mxGeometry relative="1" as="geometry" />
        </mxCell>
        <mxCell id="tBLUwzcYcOvDInlhGQcW-12" value="Successfully &lt;br&gt;Register" style="whiteSpace=wrap;html=1;rounded=1;glass=0;strokeWidth=1;shadow=0;" vertex="1" parent="WIyWlLk6GJQsqaUBKTNV-1">
          <mxGeometry x="360" y="240" width="120" height="40" as="geometry" />
        </mxCell>
        <mxCell id="tBLUwzcYcOvDInlhGQcW-17" value="" style="edgeStyle=orthogonalEdgeStyle;rounded=0;orthogonalLoop=1;jettySize=auto;html=1;" edge="1" parent="WIyWlLk6GJQsqaUBKTNV-1" source="tBLUwzcYcOvDInlhGQcW-14" target="tBLUwzcYcOvDInlhGQcW-16">
          <mxGeometry relative="1" as="geometry" />
        </mxCell>
        <mxCell id="tBLUwzcYcOvDInlhGQcW-14" value="JWT TOKEN&amp;nbsp;&lt;br&gt;(user object )" style="whiteSpace=wrap;html=1;rounded=1;glass=0;strokeWidth=1;shadow=0;" vertex="1" parent="WIyWlLk6GJQsqaUBKTNV-1">
          <mxGeometry x="360" y="350" width="110" height="50" as="geometry" />
        </mxCell>
        <mxCell id="tBLUwzcYcOvDInlhGQcW-16" value="return Jwt Token" style="whiteSpace=wrap;html=1;rounded=1;glass=0;strokeWidth=1;shadow=0;" vertex="1" parent="WIyWlLk6GJQsqaUBKTNV-1">
          <mxGeometry x="360" y="460" width="110" height="50" as="geometry" />
        </mxCell>
        <mxCell id="tBLUwzcYcOvDInlhGQcW-22" value="Logn IN" style="whiteSpace=wrap;html=1;rounded=1;glass=0;strokeWidth=1;shadow=0;" vertex="1" parent="WIyWlLk6GJQsqaUBKTNV-1">
          <mxGeometry x="710" y="60" width="70" height="20" as="geometry" />
        </mxCell>
        <mxCell id="tBLUwzcYcOvDInlhGQcW-24" value="YES" style="text;html=1;align=center;verticalAlign=middle;resizable=0;points=[];autosize=1;strokeColor=none;fillColor=none;" vertex="1" parent="WIyWlLk6GJQsqaUBKTNV-1">
          <mxGeometry x="600" y="35" width="50" height="30" as="geometry" />
        </mxCell>
        <mxCell id="tBLUwzcYcOvDInlhGQcW-28" value="" style="edgeStyle=orthogonalEdgeStyle;rounded=0;orthogonalLoop=1;jettySize=auto;html=1;entryX=0;entryY=0.5;entryDx=0;entryDy=0;" edge="1" parent="WIyWlLk6GJQsqaUBKTNV-1" source="tBLUwzcYcOvDInlhGQcW-25" target="tBLUwzcYcOvDInlhGQcW-4">
          <mxGeometry relative="1" as="geometry">
            <mxPoint x="310" y="60" as="targetPoint" />
          </mxGeometry>
        </mxCell>
        <mxCell id="tBLUwzcYcOvDInlhGQcW-25" value="Vlalidation req.body" style="whiteSpace=wrap;html=1;rounded=1;glass=0;strokeWidth=1;shadow=0;" vertex="1" parent="WIyWlLk6GJQsqaUBKTNV-1">
          <mxGeometry x="170" y="35" width="80" height="50" as="geometry" />
        </mxCell>
        <mxCell id="tBLUwzcYcOvDInlhGQcW-29" value="YES" style="text;html=1;align=center;verticalAlign=middle;resizable=0;points=[];autosize=1;strokeColor=none;fillColor=none;" vertex="1" parent="WIyWlLk6GJQsqaUBKTNV-1">
          <mxGeometry x="250" y="35" width="50" height="30" as="geometry" />
        </mxCell>
        <mxCell id="tBLUwzcYcOvDInlhGQcW-34" value="" style="edgeStyle=orthogonalEdgeStyle;rounded=0;orthogonalLoop=1;jettySize=auto;html=1;" edge="1" parent="WIyWlLk6GJQsqaUBKTNV-1" source="tBLUwzcYcOvDInlhGQcW-31">
          <mxGeometry relative="1" as="geometry">
            <mxPoint x="310" y="610" as="targetPoint" />
          </mxGeometry>
        </mxCell>
        <mxCell id="tBLUwzcYcOvDInlhGQcW-31" value="Vlaidate &lt;br&gt;req.body" style="whiteSpace=wrap;html=1;rounded=1;" vertex="1" parent="WIyWlLk6GJQsqaUBKTNV-1">
          <mxGeometry x="200" y="580" width="60" height="60" as="geometry" />
        </mxCell>
        <mxCell id="tBLUwzcYcOvDInlhGQcW-35" value="YES" style="text;html=1;align=center;verticalAlign=middle;resizable=0;points=[];autosize=1;strokeColor=none;fillColor=none;" vertex="1" parent="WIyWlLk6GJQsqaUBKTNV-1">
          <mxGeometry x="255" y="588" width="50" height="30" as="geometry" />
        </mxCell>
        <mxCell id="tBLUwzcYcOvDInlhGQcW-44" value="" style="edgeStyle=orthogonalEdgeStyle;rounded=0;orthogonalLoop=1;jettySize=auto;html=1;" edge="1" parent="WIyWlLk6GJQsqaUBKTNV-1" source="tBLUwzcYcOvDInlhGQcW-36" target="tBLUwzcYcOvDInlhGQcW-43">
          <mxGeometry relative="1" as="geometry" />
        </mxCell>
        <mxCell id="tBLUwzcYcOvDInlhGQcW-36" value="chekc exist in data &lt;br&gt;base or not&lt;br&gt;(email)&amp;nbsp;" style="rhombus;whiteSpace=wrap;html=1;" vertex="1" parent="WIyWlLk6GJQsqaUBKTNV-1">
          <mxGeometry x="320" y="570" width="200" height="80" as="geometry" />
        </mxCell>
        <mxCell id="tBLUwzcYcOvDInlhGQcW-46" value="" style="edgeStyle=orthogonalEdgeStyle;rounded=0;orthogonalLoop=1;jettySize=auto;html=1;" edge="1" parent="WIyWlLk6GJQsqaUBKTNV-1" source="tBLUwzcYcOvDInlhGQcW-43" target="tBLUwzcYcOvDInlhGQcW-45">
          <mxGeometry relative="1" as="geometry" />
        </mxCell>
        <mxCell id="tBLUwzcYcOvDInlhGQcW-43" value="&lt;span style=&quot;color: rgb(0, 0, 0); font-family: Helvetica; font-size: 12px; font-style: normal; font-variant-ligatures: normal; font-variant-caps: normal; font-weight: 400; letter-spacing: normal; orphans: 2; text-align: center; text-indent: 0px; text-transform: none; widows: 2; word-spacing: 0px; -webkit-text-stroke-width: 0px; background-color: rgb(251, 251, 251); text-decoration-thickness: initial; text-decoration-style: initial; text-decoration-color: initial; float: none; display: inline !important;&quot;&gt;Compare password&lt;/span&gt;&lt;br style=&quot;border-color: var(--border-color); color: rgb(0, 0, 0); font-family: Helvetica; font-size: 12px; font-style: normal; font-variant-ligatures: normal; font-variant-caps: normal; font-weight: 400; letter-spacing: normal; orphans: 2; text-align: center; text-indent: 0px; text-transform: none; widows: 2; word-spacing: 0px; -webkit-text-stroke-width: 0px; background-color: rgb(251, 251, 251); text-decoration-thickness: initial; text-decoration-style: initial; text-decoration-color: initial;&quot;&gt;&lt;span style=&quot;color: rgb(0, 0, 0); font-family: Helvetica; font-size: 12px; font-style: normal; font-variant-ligatures: normal; font-variant-caps: normal; font-weight: 400; letter-spacing: normal; orphans: 2; text-align: center; text-indent: 0px; text-transform: none; widows: 2; word-spacing: 0px; -webkit-text-stroke-width: 0px; background-color: rgb(251, 251, 251); text-decoration-thickness: initial; text-decoration-style: initial; text-decoration-color: initial; float: none; display: inline !important;&quot;&gt;(user password === database password )&lt;/span&gt;" style="rhombus;whiteSpace=wrap;html=1;" vertex="1" parent="WIyWlLk6GJQsqaUBKTNV-1">
          <mxGeometry x="280" y="720" width="280" height="80" as="geometry" />
        </mxCell>
        <mxCell id="tBLUwzcYcOvDInlhGQcW-48" value="" style="edgeStyle=orthogonalEdgeStyle;rounded=0;orthogonalLoop=1;jettySize=auto;html=1;" edge="1" parent="WIyWlLk6GJQsqaUBKTNV-1" source="tBLUwzcYcOvDInlhGQcW-45" target="tBLUwzcYcOvDInlhGQcW-47">
          <mxGeometry relative="1" as="geometry" />
        </mxCell>
        <mxCell id="tBLUwzcYcOvDInlhGQcW-45" value="jswt Token Cretate&lt;br&gt;(user )" style="whiteSpace=wrap;html=1;" vertex="1" parent="WIyWlLk6GJQsqaUBKTNV-1">
          <mxGeometry x="360" y="890" width="120" height="60" as="geometry" />
        </mxCell>
        <mxCell id="tBLUwzcYcOvDInlhGQcW-47" value="return jwt token&amp;nbsp;" style="whiteSpace=wrap;html=1;" vertex="1" parent="WIyWlLk6GJQsqaUBKTNV-1">
          <mxGeometry x="360" y="1030" width="120" height="60" as="geometry" />
        </mxCell>
        <mxCell id="tBLUwzcYcOvDInlhGQcW-49" value="YES" style="text;html=1;align=center;verticalAlign=middle;resizable=0;points=[];autosize=1;strokeColor=none;fillColor=none;" vertex="1" parent="WIyWlLk6GJQsqaUBKTNV-1">
          <mxGeometry x="414" y="668" width="50" height="30" as="geometry" />
        </mxCell>
        <mxCell id="tBLUwzcYcOvDInlhGQcW-50" value="YES" style="text;html=1;align=center;verticalAlign=middle;resizable=0;points=[];autosize=1;strokeColor=none;fillColor=none;" vertex="1" parent="WIyWlLk6GJQsqaUBKTNV-1">
          <mxGeometry x="414" y="818" width="50" height="30" as="geometry" />
        </mxCell>
      </root>
    </mxGraphModel>
  </diagram>
  <diagram id="0T0QVzsay0xOI4LE1sV0" name="authorization">
    <mxGraphModel dx="1762" dy="495" grid="1" gridSize="10" guides="1" tooltips="1" connect="1" arrows="1" fold="1" page="1" pageScale="1" pageWidth="850" pageHeight="1100" math="0" shadow="0">
      <root>
        <mxCell id="0" />
        <mxCell id="1" parent="0" />
        <mxCell id="N1-AMmxSvPik8XYAT0Of-6" value="" style="edgeStyle=orthogonalEdgeStyle;rounded=0;orthogonalLoop=1;jettySize=auto;html=1;" edge="1" parent="1" source="N1-AMmxSvPik8XYAT0Of-2" target="N1-AMmxSvPik8XYAT0Of-5">
          <mxGeometry relative="1" as="geometry" />
        </mxCell>
        <mxCell id="N1-AMmxSvPik8XYAT0Of-2" value="Who Am I&amp;nbsp;" style="whiteSpace=wrap;html=1;fillColor=#dae8fc;strokeColor=#6c8ebf;" vertex="1" parent="1">
          <mxGeometry x="-10" y="30" width="110" height="30" as="geometry" />
        </mxCell>
        <mxCell id="N1-AMmxSvPik8XYAT0Of-8" value="" style="edgeStyle=orthogonalEdgeStyle;rounded=0;orthogonalLoop=1;jettySize=auto;html=1;" edge="1" parent="1" source="N1-AMmxSvPik8XYAT0Of-5" target="N1-AMmxSvPik8XYAT0Of-7">
          <mxGeometry relative="1" as="geometry" />
        </mxCell>
        <mxCell id="N1-AMmxSvPik8XYAT0Of-11" value="" style="edgeStyle=orthogonalEdgeStyle;rounded=0;orthogonalLoop=1;jettySize=auto;html=1;" edge="1" parent="1" source="N1-AMmxSvPik8XYAT0Of-5" target="N1-AMmxSvPik8XYAT0Of-10">
          <mxGeometry relative="1" as="geometry" />
        </mxCell>
        <mxCell id="N1-AMmxSvPik8XYAT0Of-5" value="jwt token match&amp;nbsp;" style="rhombus;whiteSpace=wrap;html=1;" vertex="1" parent="1">
          <mxGeometry x="360" y="5" width="250" height="80" as="geometry" />
        </mxCell>
        <mxCell id="N1-AMmxSvPik8XYAT0Of-7" value="Invalid token &lt;br&gt;Logn In" style="whiteSpace=wrap;html=1;" vertex="1" parent="1">
          <mxGeometry x="685" y="15" width="120" height="60" as="geometry" />
        </mxCell>
        <mxCell id="N1-AMmxSvPik8XYAT0Of-9" value="token provided through req.header" style="text;html=1;align=center;verticalAlign=middle;resizable=0;points=[];autosize=1;strokeColor=none;fillColor=none;" vertex="1" parent="1">
          <mxGeometry x="130" y="15" width="210" height="30" as="geometry" />
        </mxCell>
        <mxCell id="N1-AMmxSvPik8XYAT0Of-13" value="" style="edgeStyle=orthogonalEdgeStyle;rounded=0;orthogonalLoop=1;jettySize=auto;html=1;" edge="1" parent="1" source="N1-AMmxSvPik8XYAT0Of-10" target="N1-AMmxSvPik8XYAT0Of-12">
          <mxGeometry relative="1" as="geometry" />
        </mxCell>
        <mxCell id="N1-AMmxSvPik8XYAT0Of-18" value="" style="edgeStyle=orthogonalEdgeStyle;rounded=0;orthogonalLoop=1;jettySize=auto;html=1;" edge="1" parent="1" source="N1-AMmxSvPik8XYAT0Of-10" target="N1-AMmxSvPik8XYAT0Of-17">
          <mxGeometry relative="1" as="geometry" />
        </mxCell>
        <mxCell id="N1-AMmxSvPik8XYAT0Of-10" value="Decrypt token and check user exit or not databse" style="whiteSpace=wrap;html=1;" vertex="1" parent="1">
          <mxGeometry x="425" y="175" width="120" height="60" as="geometry" />
        </mxCell>
        <mxCell id="N1-AMmxSvPik8XYAT0Of-12" value="send cuurent logn in user&amp;nbsp;" style="whiteSpace=wrap;html=1;" vertex="1" parent="1">
          <mxGeometry x="425" y="315" width="120" height="60" as="geometry" />
        </mxCell>
        <mxCell id="N1-AMmxSvPik8XYAT0Of-14" value="NO" style="text;html=1;align=center;verticalAlign=middle;resizable=0;points=[];autosize=1;strokeColor=none;fillColor=none;" vertex="1" parent="1">
          <mxGeometry x="620" y="18" width="40" height="30" as="geometry" />
        </mxCell>
        <mxCell id="N1-AMmxSvPik8XYAT0Of-15" value="YES" style="text;html=1;align=center;verticalAlign=middle;resizable=0;points=[];autosize=1;strokeColor=none;fillColor=none;" vertex="1" parent="1">
          <mxGeometry x="475" y="108" width="50" height="30" as="geometry" />
        </mxCell>
        <mxCell id="N1-AMmxSvPik8XYAT0Of-16" value="YES" style="text;html=1;align=center;verticalAlign=middle;resizable=0;points=[];autosize=1;strokeColor=none;fillColor=none;" vertex="1" parent="1">
          <mxGeometry x="475" y="258" width="50" height="30" as="geometry" />
        </mxCell>
        <mxCell id="N1-AMmxSvPik8XYAT0Of-17" value="Invalid Creadential&amp;nbsp;" style="whiteSpace=wrap;html=1;" vertex="1" parent="1">
          <mxGeometry x="700" y="178" width="120" height="60" as="geometry" />
        </mxCell>
        <mxCell id="N1-AMmxSvPik8XYAT0Of-19" value="NO" style="text;html=1;align=center;verticalAlign=middle;resizable=0;points=[];autosize=1;strokeColor=none;fillColor=none;" vertex="1" parent="1">
          <mxGeometry x="570" y="178" width="40" height="30" as="geometry" />
        </mxCell>
        <mxCell id="N1-AMmxSvPik8XYAT0Of-58" value="" style="edgeStyle=orthogonalEdgeStyle;rounded=0;orthogonalLoop=1;jettySize=auto;html=1;" edge="1" parent="1" source="N1-AMmxSvPik8XYAT0Of-56" target="N1-AMmxSvPik8XYAT0Of-57">
          <mxGeometry relative="1" as="geometry" />
        </mxCell>
        <mxCell id="N1-AMmxSvPik8XYAT0Of-56" value="Verify" style="whiteSpace=wrap;html=1;fillColor=#dae8fc;strokeColor=#6c8ebf;" vertex="1" parent="1">
          <mxGeometry y="450" width="90" height="30" as="geometry" />
        </mxCell>
        <mxCell id="N1-AMmxSvPik8XYAT0Of-62" value="" style="edgeStyle=orthogonalEdgeStyle;rounded=0;orthogonalLoop=1;jettySize=auto;html=1;" edge="1" parent="1" source="N1-AMmxSvPik8XYAT0Of-57" target="N1-AMmxSvPik8XYAT0Of-61">
          <mxGeometry relative="1" as="geometry" />
        </mxCell>
        <mxCell id="N1-AMmxSvPik8XYAT0Of-65" value="" style="edgeStyle=orthogonalEdgeStyle;rounded=0;orthogonalLoop=1;jettySize=auto;html=1;" edge="1" parent="1" source="N1-AMmxSvPik8XYAT0Of-57" target="N1-AMmxSvPik8XYAT0Of-64">
          <mxGeometry relative="1" as="geometry" />
        </mxCell>
        <mxCell id="N1-AMmxSvPik8XYAT0Of-57" value="jwt token match&amp;nbsp;" style="rhombus;whiteSpace=wrap;html=1;" vertex="1" parent="1">
          <mxGeometry x="380" y="440" width="220" height="80" as="geometry" />
        </mxCell>
        <mxCell id="N1-AMmxSvPik8XYAT0Of-59" value="token provided through req.header" style="text;html=1;align=center;verticalAlign=middle;resizable=0;points=[];autosize=1;strokeColor=none;fillColor=none;" vertex="1" parent="1">
          <mxGeometry x="130" y="15" width="210" height="30" as="geometry" />
        </mxCell>
        <mxCell id="N1-AMmxSvPik8XYAT0Of-60" value="Token provided through header" style="text;html=1;align=center;verticalAlign=middle;resizable=0;points=[];autosize=1;strokeColor=none;fillColor=none;" vertex="1" parent="1">
          <mxGeometry x="160" y="440" width="190" height="30" as="geometry" />
        </mxCell>
        <mxCell id="N1-AMmxSvPik8XYAT0Of-68" value="" style="edgeStyle=orthogonalEdgeStyle;rounded=0;orthogonalLoop=1;jettySize=auto;html=1;" edge="1" parent="1" source="N1-AMmxSvPik8XYAT0Of-61" target="N1-AMmxSvPik8XYAT0Of-67">
          <mxGeometry relative="1" as="geometry" />
        </mxCell>
        <mxCell id="N1-AMmxSvPik8XYAT0Of-71" value="" style="edgeStyle=orthogonalEdgeStyle;rounded=0;orthogonalLoop=1;jettySize=auto;html=1;" edge="1" parent="1" source="N1-AMmxSvPik8XYAT0Of-61" target="N1-AMmxSvPik8XYAT0Of-70">
          <mxGeometry relative="1" as="geometry" />
        </mxCell>
        <mxCell id="N1-AMmxSvPik8XYAT0Of-61" value="&lt;span style=&quot;color: rgb(0, 0, 0); font-family: Helvetica; font-size: 12px; font-style: normal; font-variant-ligatures: normal; font-variant-caps: normal; font-weight: 400; letter-spacing: normal; orphans: 2; text-align: center; text-indent: 0px; text-transform: none; widows: 2; word-spacing: 0px; -webkit-text-stroke-width: 0px; background-color: rgb(251, 251, 251); text-decoration-thickness: initial; text-decoration-style: initial; text-decoration-color: initial; float: none; display: inline !important;&quot;&gt;Decrypt token and check user exit or not databse&lt;/span&gt;" style="whiteSpace=wrap;html=1;" vertex="1" parent="1">
          <mxGeometry x="430" y="610" width="120" height="60" as="geometry" />
        </mxCell>
        <mxCell id="N1-AMmxSvPik8XYAT0Of-63" value="YES" style="text;html=1;align=center;verticalAlign=middle;resizable=0;points=[];autosize=1;strokeColor=none;fillColor=none;" vertex="1" parent="1">
          <mxGeometry x="475" y="538" width="50" height="30" as="geometry" />
        </mxCell>
        <mxCell id="N1-AMmxSvPik8XYAT0Of-64" value="Invalid token&lt;br style=&quot;border-color: var(--border-color);&quot;&gt;Logn In" style="whiteSpace=wrap;html=1;" vertex="1" parent="1">
          <mxGeometry x="730" y="450" width="120" height="60" as="geometry" />
        </mxCell>
        <mxCell id="N1-AMmxSvPik8XYAT0Of-66" value="NO" style="text;html=1;align=center;verticalAlign=middle;resizable=0;points=[];autosize=1;strokeColor=none;fillColor=none;" vertex="1" parent="1">
          <mxGeometry x="650" y="448" width="40" height="30" as="geometry" />
        </mxCell>
        <mxCell id="N1-AMmxSvPik8XYAT0Of-67" value="&lt;span style=&quot;color: rgb(0, 0, 0); font-family: Helvetica; font-size: 12px; font-style: normal; font-variant-ligatures: normal; font-variant-caps: normal; font-weight: 400; letter-spacing: normal; orphans: 2; text-align: center; text-indent: 0px; text-transform: none; widows: 2; word-spacing: 0px; -webkit-text-stroke-width: 0px; background-color: rgb(251, 251, 251); text-decoration-thickness: initial; text-decoration-style: initial; text-decoration-color: initial; float: none; display: inline !important;&quot;&gt;Invalid Creadential&amp;nbsp;&lt;/span&gt;" style="whiteSpace=wrap;html=1;" vertex="1" parent="1">
          <mxGeometry x="720" y="620" width="120" height="60" as="geometry" />
        </mxCell>
        <mxCell id="N1-AMmxSvPik8XYAT0Of-69" value="NO" style="text;html=1;align=center;verticalAlign=middle;resizable=0;points=[];autosize=1;strokeColor=none;fillColor=none;" vertex="1" parent="1">
          <mxGeometry x="620" y="618" width="40" height="30" as="geometry" />
        </mxCell>
        <mxCell id="N1-AMmxSvPik8XYAT0Of-70" value="call next function" style="whiteSpace=wrap;html=1;" vertex="1" parent="1">
          <mxGeometry x="430" y="750" width="120" height="60" as="geometry" />
        </mxCell>
        <mxCell id="N1-AMmxSvPik8XYAT0Of-72" value="YES" style="text;html=1;align=center;verticalAlign=middle;resizable=0;points=[];autosize=1;strokeColor=none;fillColor=none;" vertex="1" parent="1">
          <mxGeometry x="475" y="698" width="50" height="30" as="geometry" />
        </mxCell>
      </root>
    </mxGraphModel>
  </diagram>
  <diagram id="rxqp_IJf_vBUMq0bpa5j" name="Page-3">
    <mxGraphModel dx="836" dy="495" grid="1" gridSize="10" guides="1" tooltips="1" connect="1" arrows="1" fold="1" page="1" pageScale="1" pageWidth="850" pageHeight="1100" math="0" shadow="0">
      <root>
        <mxCell id="0" />
        <mxCell id="1" parent="0" />
      </root>
    </mxGraphModel>
  </diagram>
</mxfile>
